SplineFontDB: 3.0
FontName: Avara
FullName: Avara
FamilyName: Avara
Weight: Book
Copyright: Created by Raphael Bastide with FontForge 2.0 (http://fontforge.sf.net)
UComments: "2011-11-3: Created." 
Version: 001.000
ItalicAngle: 0
UnderlinePosition: -100
UnderlineWidth: 50
Ascent: 800
Descent: 200
LayerCount: 2
Layer: 0 0 "Back"  1
Layer: 1 0 "Fore"  0
NeedsXUIDChange: 1
XUID: [1021 366 1577494475 15714092]
FSType: 0
OS2Version: 0
OS2_WeightWidthSlopeOnly: 0
OS2_UseTypoMetrics: 1
CreationTime: 1320277816
ModificationTime: 1338836859
PfmFamily: 17
TTFWeight: 700
TTFWidth: 5
LineGap: 90
VLineGap: 0
OS2TypoAscent: 0
OS2TypoAOffset: 1
OS2TypoDescent: 0
OS2TypoDOffset: 1
OS2TypoLinegap: 90
OS2WinAscent: 0
OS2WinAOffset: 1
OS2WinDescent: 0
OS2WinDOffset: 1
HheadAscent: 0
HheadAOffset: 1
HheadDescent: 0
HheadDOffset: 1
OS2Vendor: 'PfEd'
Lookup: 258 0 0 "Hkern"  {"Classes"  } ['kern' ('DFLT' <'dflt' > 'latn' <'dflt' > ) ]
DEI: 91125
KernClass2: 32+ 21 "Classes" 
 1 b
 35 m n i l h igrave iacute icircumflex
 54 a u d agrave aacute acircumflex atilde adieresis aring
 3 o p
 1 r
 1 t
 37 e egrave eacute ecircumflex edieresis
 1 c
 1 s
 1 y
 1 v
 1 z
 1 k
 1 f
 1 R
 1 A
 1 V
 1 T
 1 K
 1 M
 1 G
 4 four
 1 L
 1 D
 1 F
 1 B
 1 j
 1 Y
 1 Z
 1 X
 1 I
 1 E
 45 d o e c q egrave eacute ecircumflex edieresis
 5 m n r
 1 u
 53 a agrave aacute acircumflex atilde adieresis aring ae
 1 t
 1 g
 1 f
 1 b
 1 s
 1 p
 1 z
 5 y v w
 1 A
 1 V
 28 idieresis icircumflex igrave
 14 k l h i iacute
 1 j
 1 Z
 5 F I E
 3 O Q

StartChar: R
Encoding: 82 82 0
Width: 720
VWidth: 0
Flags: HW
LayerCount: 2
Fore
SplineSet
0 800 m 1
 360 799.945 l 1
 560 759.945 l 1
 640 599.945 l 1
 560 439.945 l 1
 400 399.898 l 1
 480 359.891 l 1
 680 -0.109375 l 1
 520 -0.101562 l 1
 480 39.8984 l 1
 360 320 l 1
 320 359.891 l 1
 200 400.008 l 1
 200 79.9766 l 1
 280 -0.078125 l 1
 0 0 l 1
 80 80 l 1
 80 720 l 1
 0 800 l 1
240 760 m 1
 200 720 l 1
 200 440 l 1
 360 440 l 1
 440 480 l 1
 480 600 l 1
 440 720 l 1
 360 760 l 1
 240 760 l 1
EndSplineSet
Validated: 1
EndChar

StartChar: B
Encoding: 66 66 1
Width: 720
VWidth: 0
Flags: HW
LayerCount: 2
Fore
SplineSet
0 800 m 1
 360 800.023 l 1
 560 760.023 l 1
 640 600.023 l 1
 560 440.023 l 1
 440 400.023 l 1
 600 360.078 l 1
 680 200.078 l 1
 600 40.0781 l 1
 440 0.078125 l 1
 0 0 l 1
 80 80 l 1
 80 720 l 1
 0 800 l 1
240 760 m 1
 200 720 l 1
 200 440 l 1
 360 440 l 1
 440 480 l 1
 480 600 l 1
 440 720 l 1
 360 760 l 1
 240 760 l 1
200 400.031 m 1
 200 79.9766 l 1
 240 39.9766 l 1
 400 40.0547 l 1
 480 80.0547 l 1
 520 200.055 l 1
 480 320.055 l 1
 360 360 l 1
 200 400.031 l 1
EndSplineSet
Validated: 1
EndChar

StartChar: a
Encoding: 97 97 2
Width: 520
VWidth: 0
Flags: HW
LayerCount: 2
Fore
SplineSet
120 560 m 1
 240 560 l 1
 400 480 l 1
 400 80 l 1
 480 80 l 1
 480 40 l 1
 360 0 l 1
 280 80 l 1
 240 40 l 1
 120 0 l 1
 80 0 l 1
 0 160 l 1
 0 280 l 1
 280 360 l 1
 280 440 l 1
 240 520 l 1
 120 480 l 1
 80 400 l 1
 0 480 l 1
 120 560 l 1
280 320 m 1
 120 240 l 1
 120 160 l 1
 160 80 l 1
 200 80 l 1
 280 160 l 1
 280 320 l 1
EndSplineSet
Validated: 1
EndChar

StartChar: edieresis
Encoding: 235 235 3
Width: 1000
VWidth: 0
Flags: H
LayerCount: 2
Fore
SplineSet
200 558 m 1
 280 558 l 1
 400 518 l 1
 480 358 l 1
 440 278 l 1
 120 237.945 l 1
 160 78 l 1
 280 38 l 1
 360 78 l 1
 400 158 l 1
 480 118 l 1
 400 38 l 1
 320 -2 l 1
 200 -2 l 1
 80 38 l 1
 0 198 l 1
 0 358 l 1
 80 518 l 1
 200 558 l 1
240 518 m 1
 160 478 l 1
 120 277.945 l 1
 320 318 l 1
 320 478 l 1
 240 518 l 1
360 718.031 m 1
 400 678.062 l 1
 400 638.062 l 1
 360 598.031 l 1
 280 598.031 l 1
 280 678.031 l 1
 320 718.031 l 1
 360 718.031 l 1
159.438 718.219 m 1
 199.812 678.586 l 1
 200.562 598.594 l 1
 120.562 597.852 l 1
 80.1875 637.445 l 1
 79.8125 677.445 l 1
 119.438 717.844 l 1
 159.438 718.219 l 1
EndSplineSet
Validated: 1
EndChar

StartChar: g
Encoding: 103 103 4
Width: 1000
VWidth: 0
Flags: H
LayerCount: 2
Fore
SplineSet
520 598 m 1
 560 478 l 1
 520 478 l 1
 416 494 l 1
 480 398 l 1
 480 278 l 1
 440 238 l 1
 320 158 l 1
 200 118 l 1
 400 38 l 1
 520 -82 l 1
 520 -162 l 1
 440 -282 l 1
 320 -322 l 1
 240 -322 l 1
 80 -282 l 1
 0 -162 l 1
 0 -82 l 1
 160 38 l 1
 40 78 l 1
 80 118 l 1
 200 158 l 1
 80 198 l 1
 0 278 l 1
 0 398 l 1
 80 518 l 1
 200 558 l 1
 280 558 l 1
 400 518 l 1
 440 558 l 1
 520 598 l 1
240 518 m 1
 160 478 l 1
 120 358 l 1
 160 238 l 1
 240 198 l 1
 320 238 l 1
 360 358 l 1
 320 478 l 1
 240 518 l 1
200 -2 m 1
 120 -82 l 1
 120 -162 l 1
 200 -242 l 1
 360 -282 l 1
 400 -202 l 1
 400 -122 l 1
 320 -42 l 1
 200 -2 l 1
EndSplineSet
Validated: 1
EndChar

StartChar: edieresis
Encoding: 235 235 5
Width: 490
VWidth: 0
Flags: HW
LayerCount: 2
Fore
SplineSet
200 560 m 1
 280 560 l 1
 400 520 l 1
 480 360 l 1
 440 280 l 1
 120 239.945 l 1
 160 80 l 1
 280 40 l 1
 360 80 l 1
 400 160 l 1
 480 120 l 1
 400 40 l 1
 320 0 l 1
 200 0 l 1
 80 40 l 1
 0 200 l 1
 0 360 l 1
 80 520 l 1
 200 560 l 1
240 520 m 1
 160 480 l 1
 120 279.945 l 1
 320 320 l 1
 320 480 l 1
 240 520 l 1
360 720 m 5
 400 680 l 5
 400 640 l 5
 360 600 l 5
 280 600 l 5
 280 680 l 5
 320 720 l 5
 360 720 l 5
160 720 m 5
 200 680 l 5
 200 600 l 5
 120 600 l 5
 80 640 l 5
 80 680 l 5
 120 720 l 5
 160 720 l 5
EndSplineSet
Validated: 1
EndChar

StartChar: g
Encoding: 103 103 6
Width: 600
VWidth: 0
Flags: HW
LayerCount: 2
Fore
SplineSet
520 600 m 1
 560 480 l 1
 520 480 l 1
 416 496 l 1
 480 400 l 1
 480 280 l 1
 440 240 l 1
 320 160 l 1
 200 120 l 1
 400 40 l 1
 520 -80 l 1
 520 -160 l 1
 440 -280 l 1
 320 -320 l 1
 240 -320 l 1
 80 -280 l 1
 0 -160 l 1
 0 -80 l 1
 160 40 l 1
 40 80 l 1
 80 120 l 1
 200 160 l 1
 80 200 l 1
 0 280 l 1
 0 400 l 1
 80 520 l 1
 200 560 l 1
 280 560 l 1
 400 520 l 1
 440 560 l 1
 520 600 l 1
240 520 m 1
 160 480 l 1
 120 360 l 1
 160 240 l 1
 240 200 l 1
 320 240 l 1
 360 360 l 1
 320 480 l 1
 240 520 l 1
200 0 m 1
 120 -80 l 1
 120 -160 l 1
 200 -240 l 1
 360 -280 l 1
 400 -200 l 1
 400 -120 l 1
 320 -40 l 1
 200 0 l 1
EndSplineSet
EndChar

StartChar: t
Encoding: 116 116 7
Width: 360
VWidth: 0
Flags: HW
LayerCount: 2
Fore
SplineSet
200 720 m 1
 200 560 l 1
 280 560 l 1
 280 520 l 1
 200 520 l 1
 200 80 l 1
 240 40 l 1
 240 40 l 1
 280 120 l 1
 320 80 l 1
 280 0 l 1
 160 0 l 1
 80 80 l 1
 80 520 l 1
 0 520 l 1
 0 560 l 1
 80 600 l 1
 120 640 l 1
 160 720 l 1
 200 720 l 1
EndSplineSet
Validated: 5
EndChar

StartChar: p
Encoding: 112 112 8
Width: 600
VWidth: 0
Flags: HW
LayerCount: 2
Fore
SplineSet
360 560 m 1
 480 520 l 1
 560 360 l 1
 560 200 l 1
 480 40 l 1
 360 0 l 1
 280 0 l 1
 200 40 l 1
 200 -240 l 1
 280 -320 l 1
 0 -320 l 1
 80 -240 l 1
 80 440 l 1
 0 480 l 1
 200 560 l 1
 200 480 l 1
 280 560 l 1
 360 560 l 1
320 520 m 1
 200 400 l 1
 200 160 l 1
 240 80 l 1
 320 40 l 1
 400 80 l 1
 440 280 l 1
 400 480 l 1
 320 520 l 1
EndSplineSet
Validated: 1
EndChar

StartChar: o
Encoding: 111 111 9
Width: 520
VWidth: 0
Flags: HW
LayerCount: 2
Fore
SplineSet
200 560 m 1
 280 560 l 1
 400 520 l 1
 480 360 l 1
 480 200 l 1
 400 40 l 1
 280 0 l 1
 200 0 l 1
 80 40 l 1
 0 200 l 1
 0 360 l 1
 80 520 l 1
 200 560 l 1
240 520 m 1
 160 480 l 1
 120 280 l 1
 160 80 l 1
 240 40 l 1
 320 80 l 1
 360 280 l 1
 320 480 l 1
 240 520 l 1
EndSplineSet
Validated: 1
EndChar

StartChar: r
Encoding: 114 114 10
Width: 520
VWidth: 0
Flags: HW
LayerCount: 2
Fore
SplineSet
200 560 m 1
 200 400 l 1
 200 400 l 1
 280 520 l 1
 360 560 l 1
 440 520 l 1
 480 440 l 1
 360 360 l 1
 320 440 l 1
 280 440 l 1
 200 320 l 1
 200 80 l 1
 280 0 l 1
 0 0 l 1
 80 80 l 1
 80 440 l 1
 0 480 l 1
 200 560 l 1
EndSplineSet
Validated: 5
EndChar

StartChar: s
Encoding: 115 115 11
Width: 520
VWidth: 0
Flags: HW
LayerCount: 2
Fore
SplineSet
360 400 m 1
 320 520 l 1
 240 520 l 1
 160 480 l 1
 160 400 l 1
 440 280 l 1
 480 200 l 1
 400 40 l 1
 240 0 l 5
 200 0 l 1
 80 40 l 1
 0 120 l 1
 80 200 l 1
 120 80 l 1
 200 40 l 1
 320 80 l 1
 360 120 l 1
 360 160 l 1
 80 320 l 1
 40 400 l 1
 80 520 l 1
 200 560 l 1
 360 560 l 1
 440 480 l 1
 360 400 l 1
EndSplineSet
Validated: 1
EndChar

StartChar: u
Encoding: 117 117 12
Width: 600
VWidth: 0
Flags: HW
LayerCount: 2
Fore
SplineSet
560 40 m 1
 440 0 l 1
 360 80 l 1
 360 80 l 1
 320 40 l 1
 240 0 l 1
 200 0 l 1
 80 40 l 1
 40 120 l 1
 40 480 l 1
 0 520 l 1
 160 560 l 1
 160 120 l 5
 200 80 l 1
 280 80 l 1
 320 120 l 1
 360 200 l 1
 360 480 l 1
 320 520 l 1
 480 560 l 1
 480 80 l 1
 560 80 l 1
 560 40 l 1
EndSplineSet
Validated: 5
EndChar

StartChar: e
Encoding: 101 101 13
Width: 520
VWidth: 0
Flags: HW
LayerCount: 2
Fore
SplineSet
200 560 m 1
 280 560 l 1
 400 520 l 1
 480 360 l 1
 440 280 l 1
 120 240 l 1
 160 80 l 1
 280 40 l 1
 360 80 l 1
 400 160 l 1
 480 120 l 1
 400 40 l 1
 320 0 l 1
 200 0 l 1
 80 40 l 1
 0 200 l 1
 0 360 l 1
 80 520 l 1
 200 560 l 1
240 520 m 1
 160 480 l 1
 120 280 l 1
 320 320 l 1
 320 480 l 1
 240 520 l 1
EndSplineSet
Validated: 1
EndChar

StartChar: i
Encoding: 105 105 14
Width: 320
VWidth: 0
Flags: HW
LayerCount: 2
Fore
SplineSet
0 480 m 1
 200 560 l 1
 200 80 l 1
 280 0 l 1
 0 0 l 1
 80 80 l 1
 80 440 l 1
 0 480 l 1
120 600 m 1
 40 640 l 1
 40 680 l 1
 80 760 l 1
 120 760 l 1
 200 720 l 1
 200 680 l 1
 160 600 l 1
 120 600 l 1
EndSplineSet
Validated: 1
EndChar

StartChar: h
Encoding: 104 104 15
Width: 680
VWidth: 0
Flags: HW
LayerCount: 2
Fore
SplineSet
0 760 m 1
 200 840 l 1
 200 440 l 1
 280 520 l 1
 360 560 l 1
 520 520 l 1
 560 440 l 1
 560 80 l 1
 640 0 l 1
 360 0 l 1
 440 80 l 1
 440 440 l 1
 400 480 l 1
 320 480 l 1
 200 360 l 1
 200 80 l 1
 280 0 l 1
 160 0 l 1
 80 0 l 1
 0 0 l 1
 80 80 l 1
 80 720 l 1
 0 760 l 1
EndSplineSet
Validated: 1
EndChar

StartChar: l
Encoding: 108 108 16
Width: 320
VWidth: 0
Flags: HW
LayerCount: 2
Fore
SplineSet
0 760 m 5
 200 840 l 1
 200 80 l 1
 280 0 l 1
 0 0 l 1
 80 80 l 1
 80 720 l 1
 0 760 l 5
EndSplineSet
Validated: 1
EndChar

StartChar: m
Encoding: 109 109 17
Width: 1040
VWidth: 0
Flags: HW
LayerCount: 2
Fore
SplineSet
0 0 m 1
 80 80 l 1
 80 440 l 1
 0 480 l 1
 200 560 l 1
 200 560 l 1
 200 440 l 1
 280 520 l 1
 360 560 l 1
 520 520 l 1
 560 440 l 1
 640 520 l 1
 720 560 l 1
 880 520 l 1
 920 440 l 1
 920 80 l 1
 1000 0 l 1
 720 0 l 1
 800 80 l 1
 800 440 l 1
 760 480 l 1
 680 480 l 1
 560 360 l 1
 560 80 l 1
 640 0 l 1
 360 0 l 1
 360 0 l 1
 360.25 0 l 1
 440 80 l 1
 440 80 l 1
 440 440 l 1
 400 480 l 1
 320 480 l 1
 200 360 l 1
 200 80 l 1
 280 0 l 1
 0 0 l 1
EndSplineSet
Validated: 5
EndChar

StartChar: n
Encoding: 110 110 18
Width: 680
VWidth: 0
Flags: MW
LayerCount: 2
Fore
SplineSet
0 480 m 1
 200 560 l 1
 200 440 l 1
 280 520 l 1
 360 560 l 1
 520 520 l 1
 560 440 l 1
 560 80 l 1
 640 0 l 1
 360 0 l 1
 440 80 l 1
 440 440 l 1
 400 480 l 1
 320 480 l 1
 200 360 l 1
 200 80 l 5
 280 0 l 1
 160 0 l 1
 80 0 l 1
 0 0 l 1
 80 80 l 1
 80 440 l 1
 0 480 l 1
EndSplineSet
Validated: 1
EndChar

StartChar: q
Encoding: 113 113 19
Width: 600
VWidth: 0
Flags: HW
LayerCount: 2
Fore
SplineSet
560 560.002 m 1
 480 480.002 l 1
 480 -239.998 l 1
 560 -319.998 l 1
 280 -319.998 l 1
 360 -239.998 l 1
 360 40 l 1
 280 0 l 1
 200 0 l 1
 80 40.002 l 1
 0 200.002 l 1
 0 360.002 l 1
 80 520.002 l 1
 200 560.002 l 1
 280 560.002 l 1
 400 520 l 1
 480 560 l 1
 560 560.002 l 1
240 520.002 m 1
 160 480.002 l 1
 120 280.002 l 1
 160 80.002 l 1
 240 40.002 l 1
 320 80.002 l 1
 360 160 l 1
 360 400 l 5
 320 480.002 l 1
 240 520.002 l 1
EndSplineSet
Validated: 1
EndChar

StartChar: d
Encoding: 100 100 20
Width: 600
VWidth: 0
Flags: HW
LayerCount: 2
Fore
SplineSet
480 840 m 1
 480 80 l 5
 560 80 l 1
 560 44 l 1
 440 0 l 1
 400 80 l 1
 360 40 l 1
 280 0 l 1
 200 0 l 1
 80 40 l 1
 0 200 l 1
 0 360 l 1
 80 520 l 1
 200 560 l 1
 280 560 l 1
 360 520 l 1
 360 720 l 1
 280 760 l 1
 480 840 l 1
240 520 m 1
 160 480 l 1
 120 280 l 1
 160 80 l 1
 240 40 l 1
 320 80 l 1
 360 160 l 1
 360 400 l 1
 320 480 l 1
 240 520 l 1
EndSplineSet
Validated: 1
EndChar

StartChar: uni007F
Encoding: 127 127 21
Width: 1000
VWidth: 0
Flags: H
LayerCount: 2
Fore
SplineSet
440 120 m 1
 440 160 l 1
 480 160 l 1
 480 120 l 1
 440 120 l 1
400 80 m 1
 400 120 l 1
 440 120 l 1
 440 80 l 1
 400 80 l 1
360 40 m 1
 360 80 l 1
 400 80 l 1
 400 40 l 1
 360 40 l 1
320 0 m 1
 320 40 l 1
 360 40 l 1
 360 0 l 1
 320 0 l 1
280 -40 m 1
 280 0 l 1
 320 0 l 1
 320 -40 l 1
 280 -40 l 1
200 -120 m 1
 200 -80 l 1
 240 -80 l 1
 240 -120 l 1
 200 -120 l 1
240 -80 m 1
 240 -40 l 1
 280 -40 l 1
 280 -80 l 1
 240 -80 l 1
160 -160 m 1
 160 -120 l 1
 200 -120 l 1
 200 -160 l 1
 160 -160 l 1
1000 680 m 1
 1000 720 l 1
 1040 720 l 1
 1040 680 l 1
 1000 680 l 1
960 640 m 1
 960 680 l 1
 1000 680 l 1
 1000 640 l 1
 960 640 l 1
920 600 m 1
 920 640 l 1
 960 640 l 1
 960 600 l 1
 920 600 l 1
880 560 m 1
 880 600 l 1
 920 600 l 1
 920 560 l 1
 880 560 l 1
840 520 m 1
 840 560 l 1
 880 560 l 1
 880 520 l 1
 840 520 l 1
800 480 m 1
 800 520 l 1
 840 520 l 1
 840 480 l 1
 800 480 l 1
760 440 m 1
 760 480 l 1
 800 480 l 1
 800 440 l 1
 760 440 l 1
720 400 m 1
 720 440 l 1
 760 440 l 1
 760 400 l 1
 720 400 l 1
680 360 m 1
 680 400 l 1
 720 400 l 1
 720 360 l 1
 680 360 l 1
640 320 m 1
 640 360 l 1
 680 360 l 1
 680 320 l 1
 640 320 l 1
600 280 m 1
 600 320 l 1
 640 320 l 1
 640 280 l 1
 600 280 l 1
560 240 m 1
 560 280 l 1
 600 280 l 1
 600 240 l 1
 560 240 l 1
520 200 m 1
 520 240 l 1
 560 240 l 1
 560 200 l 1
 520 200 l 1
480 160 m 1
 480 200 l 1
 520 200 l 1
 520 160 l 1
 480 160 l 1
1120 800 m 1
 1120 840 l 1
 1160 840 l 1
 1160 800 l 1
 1120 800 l 1
1080 760 m 1
 1080 800 l 1
 1120 800 l 1
 1120 760 l 1
 1080 760 l 1
1040 720 m 1
 1040 760 l 1
 1080 760 l 1
 1080 720 l 1
 1040 720 l 1
120 -200 m 1
 120 -160 l 1
 160 -160 l 1
 160 -200 l 1
 120 -200 l 1
80 -240 m 1
 80 -200 l 1
 120 -200 l 1
 120 -240 l 1
 80 -240 l 1
40 -280 m 1
 40 -240 l 1
 80 -240 l 1
 80 -280 l 1
 40 -280 l 1
0 -320 m 1
 0 -280 l 1
 40 -280 l 1
 40 -320 l 1
 0 -320 l 1
EndSplineSet
Validated: 5
EndChar

StartChar: at
Encoding: 64 64 23
Width: 800
VWidth: 0
Flags: HW
LayerCount: 2
Fore
SplineSet
480 440 m 1
 360 440 l 1
 320 400 l 1
 280 240 l 1
 320 120 l 1
 400 80 l 1
 440 160 l 1
 480 440 l 1
40 520 m 1
 200 640 l 1
 400 690 l 1
 600 640 l 1
 760 520 l 1
 760 200 l 1
 680 42 l 1
 560 0 l 1
 480 120 l 1
 440 40 l 1
 280 0 l 1
 160 160 l 1
 160 320 l 1
 200 440 l 1
 320 520 l 1
 480 480 l 1
 520 520 l 1
 600 520 l 1
 560 200 l 1
 600 80 l 1
 680 200 l 1
 680 480 l 1
 560 600 l 1
 400 640 l 1
 240 600 l 1
 120 480 l 1
 80 280 l 1
 120 120 l 1
 240 -80 l 1
 480 -40 l 1
 480 -80 l 1
 200 -120 l 1
 40 80 l 1
 0 280 l 1
 40 520 l 1
EndSplineSet
Validated: 1
EndChar

StartChar: b
Encoding: 98 98 24
Width: 600
VWidth: 0
Flags: HW
LayerCount: 2
Fore
SplineSet
80 720 m 1
 80 0 l 5
 160 80 l 1
 200 40 l 1
 280 0 l 1
 360 0 l 1
 480 40 l 1
 560 200 l 1
 560 360 l 1
 480 520 l 1
 360 560 l 1
 280 560 l 1
 200 520 l 1
 200 840 l 1
 0 760 l 1
 80 720 l 1
320 520 m 1
 400 480 l 1
 440 280 l 1
 400 80 l 1
 320 40 l 1
 240 80 l 1
 200 160 l 1
 200 400 l 1
 240 480 l 1
 320 520 l 1
EndSplineSet
EndChar

StartChar: j
Encoding: 106 106 25
Width: 280
VWidth: 0
Flags: HW
LayerCount: 2
Fore
SplineSet
40 480 m 1
 240 560 l 1
 240 -200 l 1
 160 -280 l 1
 80 -320 l 1
 -40 -280 l 1
 -80 -240 l 1
 -80 -160 l 1
 0 -80 l 1
 40 -120 l 1
 0 -200 l 1
 0 -240 l 1
 80 -280 l 0
 120 -200 l 1
 120 440 l 1
 40 480 l 1
160 600 m 1
 80 640 l 1
 80 680 l 1
 120 760 l 1
 160 760 l 1
 240 720 l 1
 240 680 l 1
 200 600 l 1
 160 600 l 1
EndSplineSet
Validated: 1
EndChar

StartChar: c
Encoding: 99 99 26
Width: 520
VWidth: 0
Flags: HW
LayerCount: 2
Fore
SplineSet
320 480 m 1
 240 520 l 1
 160 480 l 1
 120 320 l 1
 120 240 l 1
 160 80 l 1
 280 40 l 1
 360 80 l 1
 400 160 l 1
 480 120 l 1
 400 40 l 1
 320 0 l 1
 200 0 l 1
 80 40 l 1
 0 200 l 1
 0 360 l 1
 80 520 l 1
 200 560 l 1
 280 560 l 1
 400 520 l 1
 400 520 l 5
 440 440 l 1
 360 360 l 9
 320 360 l 25
 320 480 l 1
EndSplineSet
Validated: 5
EndChar

StartChar: period
Encoding: 46 46 27
Width: 200
VWidth: 0
Flags: HW
LayerCount: 2
Fore
SplineSet
80 0 m 1
 0 40 l 1
 0 80 l 1
 40 160 l 1
 80 160 l 1
 160 120 l 1
 160 80 l 1
 120 0 l 1
 80 0 l 1
EndSplineSet
Validated: 1
EndChar

StartChar: A
Encoding: 65 65 28
Width: 800
VWidth: 0
Flags: HW
LayerCount: 2
Fore
SplineSet
501.429 240 m 1
 217.143 240 l 1
 160 80 l 1
 240 0 l 1
 0 0 l 1
 80 80 l 1
 320 720 l 1
 320 760 l 1
 440 800 l 1
 678 80 l 1
 768 0 l 1
 518 0 l 1
 558 80 l 1
 501.429 240 l 1
487.286 280 m 1
 360 640 l 1
 231.429 280 l 1
 487.286 280 l 1
EndSplineSet
Validated: 1
EndChar

StartChar: C
Encoding: 67 67 29
Width: 720
VWidth: 0
Flags: HW
LayerCount: 2
Fore
SplineSet
160 240 m 9
 240 80 l 25
 400 40 l 25
 520 80 l 17
 600 160 l 1
 640 240 l 9
 680 200 l 25
 600 80 l 25
 480 0 l 17
 280 0 l 1
 120 80 l 1
 40 200 l 1
 0 400 l 1
 40 600 l 9
 120 720 l 25
 280 800 l 25
 470 800 l 25
 640 720 l 25
 680 640 l 25
 600 560 l 25
 520 560 l 25
 520 680 l 17
 440 760 l 1
 360 760 l 9
 240 680 l 25
 160 560 l 17
 160 240 l 9
EndSplineSet
Validated: 1
EndChar

StartChar: D
Encoding: 68 68 30
Width: 760
VWidth: 0
Flags: HW
LayerCount: 2
Fore
SplineSet
0 800 m 1
 360 800 l 1
 560 720 l 1
 670 600 l 1
 720 400 l 1
 700 240 l 1
 600 40 l 1
 440 0 l 1
 0 0 l 1
 80 80 l 1
 80 720 l 1
 0 800 l 1
560 560 m 1
 520 640 l 1
 440 720 l 1
 360 760 l 1
 240 760 l 1
 200 720 l 1
 200 80 l 1
 240 40 l 1
 400 40 l 1
 480 80 l 1
 560 160 l 1
 600 400 l 5
 560 560 l 1
EndSplineSet
Validated: 1
EndChar

StartChar: E
Encoding: 69 69 31
Width: 760
VWidth: 0
Flags: HW
LayerCount: 2
Fore
SplineSet
640 118 m 1
 640 2 l 1
 0 0 l 1
 80 80 l 1
 80 720 l 1
 0 800 l 1
 600 800 l 1
 600 682 l 1
 520 758 l 1
 240 760 l 9
 200 716 l 25
 200 482 l 25
 240 436 l 25
 440 442 l 25
 520 524 l 25
 520 274 l 25
 440 356 l 25
 240 356 l 25
 200 316 l 25
 200 74 l 25
 240 40 l 25
 560 44 l 25
 640 118 l 1
EndSplineSet
Validated: 1
EndChar

StartChar: E
Encoding: 69 69 32
Width: 680
VWidth: 0
Flags: HW
LayerCount: 2
Fore
SplineSet
640 200 m 1
 640 0 l 1
 0 0 l 1
 80 80 l 1
 80 720 l 1
 0 800 l 1
 600 800 l 1
 600 640 l 1
 560 640 l 1
 480 760 l 1
 240 760 l 9
 200 720 l 25
 200 480 l 25
 240 440 l 25
 400 440 l 25
 480 520 l 25
 480 320 l 25
 400 400 l 25
 240 400 l 25
 200 360 l 25
 200 80 l 25
 240 40 l 25
 520 40 l 17
 600 200 l 1
 640 200 l 1
EndSplineSet
EndChar

StartChar: F
Encoding: 70 70 33
Width: 760
VWidth: 0
Flags: HW
LayerCount: 2
Fore
SplineSet
0 0 m 1
 80 80 l 1
 80 720 l 1
 0 800 l 1
 600 800 l 1
 600 640 l 1
 560 640 l 1
 480 760 l 1
 240 760 l 9
 200 720 l 25
 200 480 l 25
 240 440 l 25
 400 440 l 25
 480 520 l 25
 480 320 l 25
 400 400 l 17
 240 400 l 9
 200 360 l 25
 200 80 l 25
 280 0 l 25
 0 0 l 1
EndSplineSet
Validated: 1
EndChar

StartChar: G
Encoding: 71 71 34
Width: 722
VWidth: 0
Flags: HW
LayerCount: 2
Fore
SplineSet
160 240 m 5
 240 90 l 1
 440 40 l 1
 560 120 l 1
 560 280 l 1
 480 360 l 1
 760 360 l 1
 680 280 l 1
 680 0 l 1
 600 80 l 1
 480 0 l 1
 280 0 l 1
 120 80 l 1
 40 200 l 1
 0 400 l 1
 40 600 l 1
 120 720 l 1
 280 800 l 1
 470 800 l 1
 640 720 l 1
 680 640 l 1
 600 560 l 1
 520 560 l 1
 520 680 l 1
 440 760 l 1
 360 760 l 1
 240 680 l 1
 160 560 l 5
 160 240 l 5
EndSplineSet
Validated: 1
EndChar

StartChar: H
Encoding: 72 72 35
Width: 760
VWidth: 0
Flags: HW
LayerCount: 2
Fore
SplineSet
280 800 m 1
 200 720 l 9
 200 480 l 25
 240 440 l 25
 480 440 l 25
 520 480 l 17
 520 720 l 1
 440 800 l 1
 720 800 l 1
 640 720 l 1
 640 80 l 1
 720 0 l 1
 440 0 l 1
 520 80 l 1
 520 360 l 9
 480 400 l 17
 240 400 l 9
 200 360 l 25
 200 80 l 25
 280 0 l 25
 0 0 l 1
 80 80 l 1
 80 720 l 1
 0 800 l 1
 280 800 l 1
EndSplineSet
Validated: 1
EndChar

StartChar: I
Encoding: 73 73 36
Width: 320
VWidth: 0
Flags: HW
LayerCount: 2
Fore
SplineSet
200 80 m 25
 280 0 l 25
 0 0 l 1
 80 80 l 1
 80 720 l 5
 0 800 l 1
 280 800 l 1
 200 720 l 9
 200 80 l 25
EndSplineSet
Validated: 1
EndChar

StartChar: J
Encoding: 74 74 37
Width: 440
VWidth: 0
Flags: HW
LayerCount: 2
Fore
SplineSet
80 160 m 1
 80 80 l 1
 120 40 l 1
 160 40 l 1
 200 120 l 1
 200 720 l 1
 120 800 l 1
 400 800 l 1
 320 720 l 9
 320 80 l 17
 240 0 l 1
 80 0 l 1
 0 80 l 1
 40 200 l 1
 80 160 l 1
EndSplineSet
Validated: 1
EndChar

StartChar: K
Encoding: 75 75 38
Width: 720
VWidth: 0
Flags: HW
LayerCount: 2
Fore
SplineSet
720 0 m 1
 560 0 l 1
 520 40 l 1
 360 320 l 1
 280 400 l 1
 200 320 l 1
 200 80 l 9
 280 0 l 25
 0 0 l 1
 80 80 l 1
 80 720 l 1
 0 800 l 1
 280 800 l 1
 200 720 l 1
 200 400 l 1
 520 720 l 1
 440 800 l 1
 680 800 l 1
 600 720 l 1
 320 440 l 1
 480 360 l 1
 720 0 l 1
EndSplineSet
Validated: 1
EndChar

StartChar: L
Encoding: 76 76 39
Width: 640
VWidth: 0
Flags: HW
LayerCount: 2
Fore
SplineSet
200 80 m 17
 240 40 l 1
 480 40 l 1
 560 200 l 1
 600 200 l 1
 600 0 l 9
 0 0 l 1
 80 80 l 1
 80 720 l 1
 0 800 l 1
 280 800 l 1
 200 720 l 9
 200 80 l 17
EndSplineSet
Validated: 1
EndChar

StartChar: f
Encoding: 102 102 40
Width: 440
VWidth: 0
Flags: HW
LayerCount: 2
Fore
SplineSet
200 560 m 1
 320 560 l 1
 320 520 l 1
 280 520 l 1
 200 480 l 1
 200 80 l 1
 280 0 l 1
 0 0 l 1
 80 80 l 1
 80 480 l 1
 40 520 l 1
 40 560 l 1
 80 560 l 1
 80 680 l 1
 120 760 l 0
 160 800 l 1
 320 840 l 1
 400 800 l 1
 400 680 l 0
 360 640 l 1
 280 680 l 1
 320 760 l 1
 240 800 l 1
 200 720 l 1
 200 560 l 1
EndSplineSet
Validated: 1
EndChar

StartChar: M
Encoding: 77 77 41
Width: 960
VWidth: 0
Flags: HW
LayerCount: 2
Fore
SplineSet
480 230 m 9
 680 800 l 1
 920 800 l 1
 840 720 l 1
 840 80 l 1
 920 0 l 1
 640 0 l 1
 720 80 l 1
 720 680 l 17
 440 -40 l 9
 160 680 l 25
 160 80 l 25
 240 0 l 25
 0 0 l 1
 80 80 l 1
 80 720 l 1
 0 800 l 1
 240 800 l 1
 480 230 l 9
EndSplineSet
Validated: 1
EndChar

StartChar: N
Encoding: 78 78 42
Width: 760
VWidth: 0
Flags: HW
LayerCount: 2
Fore
SplineSet
640 -40 m 1
 560 0 l 1
 160 680 l 9
 160 80 l 25
 240 0 l 25
 0 0 l 1
 80 80 l 1
 80 720 l 1
 0 800 l 1
 240 800 l 1
 560 280 l 1
 560 720 l 1
 480 800 l 1
 720 800 l 1
 640 720 l 1
 640 -40 l 1
EndSplineSet
Validated: 1
EndChar

StartChar: O
Encoding: 79 79 43
Width: 840
VWidth: 0
Flags: HW
LayerCount: 2
Fore
SplineSet
640 560 m 1
 560 720 l 1
 400 760 l 9
 240 720 l 25
 160 560 l 17
 160 240 l 9
 240 80 l 25
 400 40 l 25
 560 80 l 17
 640 240 l 1
 640 560 l 1
680 80 m 9
 520 0 l 17
 280 0 l 1
 120 80 l 1
 40 200 l 1
 0 400 l 1
 40 600 l 9
 120 720 l 25
 280 800 l 25
 520 800 l 25
 680 720 l 25
 760 600 l 17
 800 400 l 1
 760 200 l 1
 680 80 l 9
EndSplineSet
Validated: 1
EndChar

StartChar: P
Encoding: 80 80 44
Width: 680
VWidth: 0
Flags: HW
LayerCount: 2
Fore
SplineSet
200 360 m 1
 200 79 l 1
 280 0 l 1
 0 0 l 1
 80 80 l 1
 80 720 l 1
 0 800 l 1
 360 800 l 1
 560 760 l 1
 640 600 l 1
 560 400 l 1
 360 320 l 1
 200 360 l 1
240 760 m 1
 200 720 l 1
 200 400 l 1
 320 400 l 1
 440 440 l 1
 480 600 l 1
 440 720 l 1
 360 760 l 1
 240 760 l 1
EndSplineSet
Validated: 1
EndChar

StartChar: Q
Encoding: 81 81 45
Width: 840
VWidth: 0
Flags: HW
LayerCount: 2
Fore
SplineSet
480 40 m 1
 550 80 l 1
 640 240 l 1
 640 560 l 1
 560 720 l 1
 400 760 l 1
 240 720 l 1
 160 560 l 1
 160 240 l 1
 200 120 l 1
 240 200 l 1
 360 200 l 1
 440 120 l 1
 480 40 l 1
480 0 m 1
 520 -40 l 1
 560 -80 l 1
 640 -80 l 1
 680 -40 l 1
 720 40 l 1
 800 -40 l 1
 760 -80 l 1
 640 -120 l 1
 560 -120 l 1
 440 -40 l 1
 400 0 l 1
 280 0 l 1
 120 80 l 1
 40 200 l 1
 0 400 l 1
 40 600 l 1
 120 720 l 1
 280 800 l 1
 520 800 l 1
 680 720 l 1
 760 600 l 1
 800 400 l 1
 760 200 l 1
 680 80 l 1
 480 0 l 1
240 80 m 1
 320 40 l 1
 400 40 l 1
 360 120 l 1
 280 160 l 1
 240 120 l 1
 240 80 l 1
EndSplineSet
Validated: 1
EndChar

StartChar: S
Encoding: 83 83 46
Width: 722
VWidth: 0
Flags: HW
LayerCount: 2
Fore
SplineSet
160 240 m 9
 240 80 l 25
 400 40 l 25
 520 80 l 17
 600 160 l 1
 640 240 l 9
 680 200 l 25
 600 80 l 25
 480 0 l 17
 280 0 l 1
 120 80 l 1
 40 200 l 1
 0 400 l 1
 40 600 l 9
 120 720 l 25
 280 800 l 25
 470 800 l 25
 640 720 l 25
 680 640 l 25
 600 560 l 25
 520 560 l 25
 520 680 l 17
 440 760 l 1
 360 760 l 9
 240 680 l 25
 160 560 l 17
 160 240 l 9
EndSplineSet
Validated: 1
EndChar

StartChar: S
Encoding: 83 83 47
Width: 720
VWidth: 0
Flags: HW
LayerCount: 2
Fore
SplineSet
200 560 m 1
 240 520 l 1
 560 400 l 9
 640 360 l 17
 680 240 l 1
 600 120 l 1
 450 0 l 1
 240 0 l 1
 100 80 l 9
 40 170 l 25
 160 240 l 25
 200 120 l 17
 280 40 l 1
 400 40 l 1
 480 120 l 1
 520 200 l 1
 480 280 l 1
 160 400 l 1
 80 520 l 1
 80 600 l 9
 160 720 l 25
 280 800 l 25
 430 800 l 25
 600 720 l 25
 640 640 l 25
 560 560 l 25
 480 560 l 25
 480 680 l 17
 400 760 l 1
 320 760 l 9
 240 720 l 25
 200 640 l 17
 200 560 l 1
EndSplineSet
Validated: 1
EndChar

StartChar: T
Encoding: 84 84 48
Width: 720
VWidth: 0
Flags: HW
LayerCount: 2
Fore
SplineSet
680 640 m 1
 640 640 l 1
 560 720 l 1
 400 760 l 9
 400 80 l 25
 480 0 l 25
 200 0 l 1
 280 80 l 1
 280 760 l 1
 120 720 l 1
 40 640 l 1
 0 640 l 1
 40 840 l 1
 200 800 l 1
 480 800 l 1
 640 840 l 1
 680 640 l 1
EndSplineSet
Validated: 1
EndChar

StartChar: U
Encoding: 85 85 49
Width: 800
VWidth: 0
Flags: HW
LayerCount: 2
Fore
SplineSet
680 240 m 1
 640 120 l 1
 560 40 l 9
 440 0 l 17
 320 0 l 1
 200 40 l 1
 120 120 l 1
 80 240 l 1
 80 720 l 1
 10 800 l 1
 280 800 l 1
 200 720 l 1
 200 240 l 1
 240 120 l 1
 280 80 l 9
 400 40 l 25
 520 80 l 17
 560 120 l 1
 600 240 l 1
 600 720 l 1
 512 800 l 1
 760 800 l 1
 680 720 l 1
 680 240 l 1
EndSplineSet
Validated: 1
EndChar

StartChar: V
Encoding: 86 86 50
Width: 800
VWidth: 0
Flags: HW
LayerCount: 2
Fore
SplineSet
600 720 m 1
 510 800 l 1
 760 800 l 1
 680 720 l 1
 400 0 l 17
 360 -40 l 1
 80 720 l 1
 10 800 l 1
 280 800 l 1
 200 720 l 1
 400 200 l 25
 600 720 l 1
EndSplineSet
Validated: 1
EndChar

StartChar: W
Encoding: 87 87 51
Width: 1120
VWidth: 0
Flags: HW
LayerCount: 2
Fore
SplineSet
640 760 m 1
 760 200 l 1
 920 720 l 1
 840 800 l 1
 1080 800 l 1
 1000 720 l 1
 760 0 l 1
 720 -40 l 1
 560 522 l 1
 400 0 l 1
 360 -40 l 1
 110 720 l 1
 40 800 l 1
 310 800 l 1
 230 720 l 1
 400 200 l 1
 520 720 l 1
 640 760 l 1
EndSplineSet
EndChar

StartChar: X
Encoding: 88 88 52
Width: 800
VWidth: 0
Flags: HW
LayerCount: 2
Fore
SplineSet
600 720 m 1
 520 800 l 1
 760 800 l 1
 680 720 l 1
 440 440 l 1
 680 124 l 1
 760 0 l 1
 480 0 l 1
 560 82 l 1
 360 360 l 1
 160 80 l 1
 240 0 l 1
 0 0 l 1
 80 80 l 1
 320 400 l 1
 80 684 l 1
 0 800 l 1
 280 800 l 1
 200 720 l 1
 400 480 l 17
 600 720 l 1
EndSplineSet
Validated: 1
EndChar

StartChar: Y
Encoding: 89 89 53
Width: 720
VWidth: 0
Flags: HW
LayerCount: 2
Fore
SplineSet
360 440 m 1
 400 440 l 1
 520 680 l 1
 520 720 l 1
 440 800 l 1
 680 800 l 1
 600 720 l 1
 400 360 l 9
 400 80 l 25
 480 0 l 25
 200 0 l 1
 280 80 l 1
 280 360 l 1
 80 720 l 1
 0 800 l 1
 280 800 l 1
 200 720 l 1
 360 440 l 1
EndSplineSet
Validated: 1
EndChar

StartChar: Z
Encoding: 90 90 54
Width: 720
VWidth: 0
Flags: HW
LayerCount: 2
Fore
SplineSet
240 40 m 1
 560 40 l 1
 640 200 l 1
 680 200 l 1
 680 0 l 9
 40 0 l 1
 40 40 l 1
 480 760 l 1
 200 760 l 1
 80 600 l 1
 40 600 l 1
 80 800 l 1
 680 800 l 5
 240 80 l 1
 240 40 l 1
EndSplineSet
EndChar

StartChar: k
Encoding: 107 107 55
Width: 640
VWidth: 0
Flags: HW
LayerCount: 2
Fore
SplineSet
0 760 m 1
 200 840 l 1
 200 280 l 1
 400 480 l 1
 320 560 l 1
 560 560 l 1
 472 480 l 1
 360 360 l 1
 560 80 l 1
 600 0 l 1
 480 0 l 1
 440 40 l 1
 280 280 l 1
 200 200 l 1
 200 80 l 1
 280 0 l 1
 0 0 l 1
 80 80 l 1
 80 720 l 1
 0 760 l 1
EndSplineSet
Validated: 1
EndChar

StartChar: v
Encoding: 118 118 56
Width: 640
VWidth: 0
Flags: HW
LayerCount: 2
Fore
SplineSet
320 0 m 1
 240 0 l 1
 80 480 l 1
 0 560 l 1
 280 560 l 1
 200 480 l 1
 320 120 l 1
 440 480 l 1
 360 560 l 1
 600 560 l 1
 520 480 l 1
 360 80 l 1
 320 0 l 1
EndSplineSet
Validated: 1
EndChar

StartChar: w
Encoding: 119 119 57
Width: 987
VWidth: 0
Flags: HW
LayerCount: 2
Fore
SplineSet
440 320 m 1
 360 80 l 1
 320 0 l 1
 240 0 l 1
 80 480 l 1
 0 560 l 5
 280 560 l 1
 200 480 l 1
 320 120 l 1
 440 480 l 1
 520 520 l 1
 640 120 l 1
 760 480 l 1
 680 560 l 1
 920 560 l 1
 840 480 l 1
 680 80 l 1
 640 0 l 1
 560 0 l 1
 440 320 l 1
EndSplineSet
EndChar

StartChar: x
Encoding: 120 120 58
Width: 640
VWidth: 0
Flags: HW
LayerCount: 2
Fore
SplineSet
520 80 m 1
 600 0 l 1
 320 0 l 1
 400 78 l 1
 280 240 l 1
 160 80 l 1
 232 0 l 1
 0 0 l 1
 80 78 l 1
 240 280 l 1
 80 480 l 1
 0 560 l 1
 280 560 l 1
 200 480 l 1
 320 318 l 1
 440 480 l 1
 360 560 l 1
 600 560 l 1
 520 480 l 1
 360 278 l 1
 520 80 l 1
EndSplineSet
Validated: 1
EndChar

StartChar: y
Encoding: 121 121 59
Width: 640
VWidth: 0
Flags: HW
LayerCount: 2
Fore
SplineSet
240 0 m 1
 80 480 l 1
 0 560 l 1
 280 560 l 1
 200 480 l 1
 320 120 l 1
 440 480 l 1
 360 560 l 1
 600 560 l 1
 520 480 l 1
 200 -320 l 1
 120 -280 l 1
 240 0 l 1
EndSplineSet
Validated: 1
EndChar

StartChar: z
Encoding: 122 122 60
Width: 520
VWidth: 0
Flags: HW
LayerCount: 2
Fore
SplineSet
200 40 m 1
 360 40 l 1
 440 200 l 1
 480 200 l 1
 480 0 l 9
 0 0 l 1
 0 40 l 1
 320 520 l 1
 160 520 l 1
 80 360 l 1
 40 360 l 1
 40 560 l 1
 480 560 l 1
 200 80 l 1
 200 40 l 1
EndSplineSet
Validated: 1
EndChar

StartChar: one
Encoding: 49 49 61
Width: 320
VWidth: 0
Flags: HW
LayerCount: 2
Fore
SplineSet
120 760 m 1
 200 800 l 9
 200 80 l 25
 280 0 l 25
 0 0 l 1
 80 80 l 1
 80 600 l 1
 0 600 l 1
 0 640 l 1
 80 680 l 1
 120 760 l 1
EndSplineSet
Validated: 1
EndChar

StartChar: two
Encoding: 50 50 62
Width: 560
VWidth: 0
Flags: HW
LayerCount: 2
Fore
SplineSet
120 680 m 1
 200 720 l 9
 240 720 l 17
 320 680 l 1
 360 600 l 1
 320 480 l 1
 40 160 l 9
 0 40 l 25
 0 0 l 25
 480 0 l 25
 520 160 l 17
 480 160 l 1
 400 80 l 9
 80 80 l 17
 120 160 l 1
 320 320 l 1
 440 440 l 1
 480 520 l 1
 480 680 l 1
 400 760 l 1
 320 800 l 1
 200 800 l 1
 80 760 l 1
 0 640 l 9
 40 600 l 25
 120 680 l 1
EndSplineSet
Validated: 9
EndChar

StartChar: three
Encoding: 51 51 63
Width: 560
VWidth: 0
Flags: HW
LayerCount: 2
Fore
SplineSet
360 440 m 17
 480 520 l 1
 480 680 l 1
 400 760 l 1
 320 800 l 1
 200 800 l 1
 80 760 l 1
 0 640 l 9
 40 600 l 25
 120 680 l 1
 200 720 l 9
 240 720 l 17
 320 680 l 1
 360 600 l 1
 320 482 l 9
 240 442 l 17
 160 480 l 9
 120 360 l 25
 240 400 l 25
 320 360 l 25
 400 280 l 17
 400 200 l 9
 360 80 l 17
 280 44 l 1
 200 44 l 9
 120 120 l 25
 120 200 l 25
 0 160 l 25
 40 80 l 25
 160 0 l 25
 280 0 l 25
 440 40 l 25
 520 160 l 25
 520 320 l 25
 440 400 l 25
 360 440 l 17
EndSplineSet
Validated: 9
EndChar

StartChar: four
Encoding: 52 52 64
Width: 600
VWidth: 0
Flags: HW
LayerCount: 2
Fore
SplineSet
360 280 m 1
 120 280 l 1
 360 680 l 1
 360 280 l 1
320 800 m 1
 0 280 l 1
 40 200 l 1
 320 200 l 1
 320 80 l 1
 240 0 l 1
 520 0 l 1
 440 80 l 1
 440 200 l 1
 560 200 l 1
 560 280 l 1
 440 280 l 1
 440 840 l 1
 320 800 l 1
EndSplineSet
Validated: 9
EndChar

StartChar: five
Encoding: 53 53 65
Width: 560
VWidth: 0
Flags: HW
LayerCount: 2
Fore
SplineSet
440 680 m 25
 160 680 l 25
 120 480 l 17
 200 520 l 1
 360 520 l 9
 440 480 l 25
 520 360 l 25
 520 160 l 25
 440 40 l 25
 280 0 l 25
 160 0 l 25
 40 80 l 25
 0 160 l 25
 120 200 l 25
 120 120 l 25
 200 40 l 17
 280 40 l 1
 360 80 l 9
 400 200 l 17
 400 360 l 9
 320 480 l 17
 200 480 l 9
 40 360 l 25
 120 800 l 17
 480 800 l 9
 440 680 l 25
EndSplineSet
Validated: 1
EndChar

StartChar: six
Encoding: 54 54 66
Width: 560
VWidth: 0
Flags: HW
LayerCount: 2
Fore
SplineSet
120 320 m 1
 80 240 l 1
 80 200 l 1
 120 120 l 1
 200 40 l 1
 280 40 l 1
 360 120 l 1
 400 200 l 1
 400 240 l 1
 360 360 l 1
 240 400 l 1
 120 320 l 1
80 360 m 1
 200 440 l 1
 360 480 l 1
 480 400 l 1
 520 240 l 1
 480 160 l 1
 400 40 l 1
 280 0 l 1
 160 0 l 1
 40 80 l 1
 0 200 l 1
 0 320 l 1
 40 520 l 1
 120 680 l 1
 240 760 l 1
 360 800 l 1
 390 680 l 1
 280 680 l 1
 200 640 l 1
 120 520 l 1
 80 360 l 1
EndSplineSet
Validated: 1
EndChar

StartChar: quotesingle
Encoding: 39 39 67
Width: 200
VWidth: 0
Flags: HW
LayerCount: 2
Fore
SplineSet
40 560 m 29
 40 760 l 25
 80 800 l 25
 120 800 l 25
 160 760 l 25
 160 720 l 25
 80 600 l 25
 40 560 l 29
EndSplineSet
Validated: 1
EndChar

StartChar: seven
Encoding: 55 55 68
Width: 600
VWidth: 0
Flags: HW
LayerCount: 2
Fore
SplineSet
320 240 m 9
 400 480 l 25
 560 720 l 25
 560 800 l 25
 40 800 l 25
 40 600 l 25
 80 600 l 25
 160 720 l 25
 480 720 l 25
 280 400 l 25
 200 200 l 25
 160 0 l 25
 320 0 l 17
 320 240 l 9
EndSplineSet
Validated: 9
EndChar

StartChar: eight
Encoding: 56 56 69
Width: 798
VWidth: 0
Flags: HW
LayerCount: 2
Fore
SplineSet
280 360 m 25
 360 318 l 25
 400 204 l 25
 360 82 l 25
 280 38 l 25
 200 76 l 25
 120 196 l 25
 160 318 l 25
 240 374 l 25
 280 360 l 25
360 400 m 1
 440 442 l 1
 520 520 l 1
 520 640 l 1
 440 758 l 1
 320 800 l 1
 240 800 l 1
 120 760 l 1
 40 640 l 1
 40 520 l 1
 120 440 l 1
 200 404 l 9
 120 362 l 25
 40 284 l 25
 40 164 l 25
 80 78 l 25
 200 0 l 25
 360 0 l 25
 480 78 l 25
 520 160 l 25
 520 280 l 25
 440 366 l 25
 360 400 l 1
320 762 m 1
 192 720 l 1
 152 600 l 1
 192 480 l 1
 310 440 l 1
 400 482 l 1
 440 600 l 1
 392 720 l 1
 320 762 l 1
EndSplineSet
Validated: 9
EndChar

StartChar: eight
Encoding: 56 56 70
Width: 560
VWidth: 0
Flags: HW
LayerCount: 2
Fore
SplineSet
200 360 m 5
 160 240 l 5
 160 200 l 5
 200 80 l 5
 280 40 l 5
 360 80 l 5
 400 200 l 5
 400 240 l 5
 360 320 l 5
 240 400 l 5
 200 360 l 5
320 760 m 5
 200 720 l 5
 160 640 l 5
 200 560 l 5
 320 480 l 5
 400 520 l 5
 440 640 l 5
 400 720 l 5
 320 760 l 5
200 440 m 5
 80 524 l 5
 40 596 l 5
 40 678 l 5
 120 758 l 5
 240 800 l 5
 320 800 l 5
 440 760 l 5
 520 680 l 5
 520 600 l 5
 480 520 l 5
 360 440 l 5
 480 360 l 5
 520 280 l 5
 520 160 l 5
 440 40 l 5
 320 0 l 5
 200 0 l 5
 80 80 l 5
 40 160 l 5
 40 280 l 5
 120 400 l 5
 200 440 l 5
EndSplineSet
EndChar

StartChar: nine
Encoding: 57 57 71
Width: 600
VWidth: 0
Flags: HW
LayerCount: 2
Fore
SplineSet
400 720 m 1
 320 760 l 1
 200 720 l 1
 160 640 l 1
 160 560 l 1
 200 440 l 1
 280 400 l 1
 360 400 l 1
 440 480 l 1
 440 600 l 1
 400 720 l 1
160 40 m 1
 280 80 l 1
 360 160 l 1
 430 320 l 1
 440 400 l 1
 360 360 l 1
 240 360 l 1
 80 440 l 1
 40 560 l 1
 80 680 l 1
 160 760 l 1
 280 800 l 1
 400 800 l 1
 520 720 l 1
 560 600 l 1
 560 440 l 1
 520 280 l 1
 400 120 l 1
 320 40 l 1
 200 0 l 1
 160 0 l 1
 160 40 l 1
EndSplineSet
EndChar

StartChar: zero
Encoding: 48 48 72
Width: 680
VWidth: 0
Flags: HW
LayerCount: 2
Fore
SplineSet
480 560 m 1
 400 720 l 1
 320 760 l 9
 240 720 l 25
 160 560 l 17
 160 240 l 9
 240 80 l 25
 320 40 l 25
 392 80 l 17
 480 240 l 1
 480 560 l 1
520 80 m 9
 360 0 l 17
 280 0 l 1
 120 80 l 1
 40 200 l 1
 0 400 l 1
 40 600 l 9
 120 720 l 25
 280 800 l 25
 360 800 l 25
 520 720 l 25
 600 600 l 17
 640 400 l 1
 600 200 l 1
 520 80 l 9
EndSplineSet
Validated: 1
EndChar

StartChar: colon
Encoding: 58 58 73
Width: 200
VWidth: 0
Flags: HW
LayerCount: 2
Fore
SplineSet
80 360 m 1
 0 400 l 1
 0 440 l 1
 40 520 l 1
 80 520 l 1
 160 480 l 1
 160 440 l 1
 120 360 l 1
 80 360 l 1
80 0 m 1
 0 40 l 1
 0 80 l 1
 40 160 l 1
 80 160 l 1
 160 120 l 1
 160 80 l 1
 120 0 l 1
 80 0 l 1
EndSplineSet
Validated: 1
EndChar

StartChar: semicolon
Encoding: 59 59 74
Width: 240
VWidth: 0
Flags: HW
LayerCount: 2
Fore
SplineSet
120 360 m 1
 40 400 l 1
 40 440 l 1
 80 520 l 1
 120 520 l 1
 200 480 l 1
 200 440 l 1
 160 360 l 1
 120 360 l 1
120 -120 m 1
 0 -120 l 1
 0 -80 l 1
 80 -80 l 1
 120 0 l 1
 40 40 l 1
 40 80 l 1
 80 160 l 1
 120 160 l 1
 200 120 l 1
 200 40 l 1
 120 -120 l 1
EndSplineSet
Validated: 1
EndChar

StartChar: comma
Encoding: 44 44 75
Width: 240
VWidth: 0
Flags: HW
LayerCount: 2
Fore
SplineSet
120 -120 m 1
 0 -120 l 1
 0 -80 l 1
 80 -80 l 1
 120 0 l 1
 40 40 l 1
 40 80 l 1
 80 160 l 1
 120 160 l 1
 200 120 l 1
 200 40 l 1
 120 -120 l 1
EndSplineSet
Validated: 1
EndChar

StartChar: exclam
Encoding: 33 33 76
Width: 240
VWidth: 0
Flags: HW
LayerCount: 2
Fore
SplineSet
120 0 m 1
 40 40 l 1
 40 80 l 1
 80 160 l 1
 120 160 l 1
 200 120 l 1
 200 80 l 1
 160 0 l 1
 120 0 l 1
80 800 m 1
 160 800 l 1
 200 760 l 1
 200 640 l 9
 160 360 l 17
 120 240 l 1
 80 360 l 1
 40 640 l 1
 40 760 l 1
 80 800 l 1
EndSplineSet
Validated: 1
EndChar

StartChar: hyphen
Encoding: 45 45 77
Width: 280
VWidth: 0
Flags: HW
LayerCount: 2
Fore
SplineSet
0 360 m 25
 240 360 l 25
 240 240 l 25
 0 240 l 25
 0 360 l 25
EndSplineSet
Validated: 1
EndChar

StartChar: plus
Encoding: 43 43 78
Width: 600
VWidth: 0
Flags: HW
LayerCount: 2
Fore
SplineSet
0 360 m 25
 0 280 l 25
 240 280 l 25
 240 40 l 25
 320 40 l 25
 320 280 l 25
 560 280 l 25
 560 360 l 25
 320 360 l 25
 320 600 l 25
 240 600 l 25
 240 360 l 25
 0 360 l 25
EndSplineSet
Validated: 9
EndChar

StartChar: equal
Encoding: 61 61 79
Width: 520
VWidth: 0
Flags: HW
LayerCount: 2
Fore
SplineSet
480 360 m 25
 480 440 l 25
 0 440 l 25
 0 360 l 25
 480 360 l 25
480 200 m 25
 480 280 l 25
 0 280 l 25
 0 200 l 25
 480 200 l 25
EndSplineSet
Validated: 9
EndChar

StartChar: egrave
Encoding: 232 232 81
Width: 520
VWidth: 0
Flags: HW
LayerCount: 2
Fore
SplineSet
360 600 m 1
 320 600 l 1
 120 680 l 1
 120 720 l 1
 160 760 l 1
 200 760 l 1
 360 600 l 1
200 560 m 1
 280 560 l 1
 400 520 l 1
 480 360 l 1
 440 280 l 1
 120 240 l 1
 160 80 l 1
 280 40 l 1
 360 80 l 1
 400 160 l 1
 480 120 l 1
 400 40 l 1
 320 0 l 1
 200 0 l 1
 80 40 l 1
 0 200 l 1
 0 360 l 1
 80 520 l 1
 200 560 l 1
240 520 m 1
 160 480 l 1
 120 280 l 1
 320 320 l 1
 320 480 l 1
 240 520 l 1
EndSplineSet
Validated: 1
EndChar

StartChar: eacute
Encoding: 233 233 82
Width: 520
VWidth: 0
Flags: HW
LayerCount: 2
Fore
SplineSet
160 600 m 5
 200 600 l 5
 400 680 l 5
 400 720 l 5
 360 760 l 5
 320 760 l 5
 160 600 l 5
200 560 m 1
 280 560 l 1
 400 520 l 1
 480 360 l 1
 440 280 l 1
 120 240 l 1
 160 80 l 1
 280 40 l 1
 360 80 l 1
 400 160 l 1
 480 120 l 1
 400 40 l 1
 320 0 l 1
 200 0 l 1
 80 40 l 1
 0 200 l 1
 0 360 l 1
 80 520 l 1
 200 560 l 1
240 520 m 1
 160 480 l 1
 120 280 l 1
 320 320 l 1
 320 480 l 1
 240 520 l 1
EndSplineSet
Validated: 9
EndChar

StartChar: ecircumflex
Encoding: 234 234 83
Width: 520
VWidth: 0
Flags: HW
LayerCount: 2
Fore
SplineSet
80 600 m 5
 120 600 l 5
 240 680 l 5
 360 600 l 5
 400 600 l 5
 280 760 l 5
 200 760 l 5
 80 600 l 5
200 560 m 1
 280 560 l 1
 400 520 l 1
 480 360 l 1
 440 280 l 1
 120 240 l 1
 160 80 l 1
 280 40 l 1
 360 80 l 1
 400 160 l 1
 480 120 l 1
 400 40 l 1
 320 0 l 1
 200 0 l 1
 80 40 l 1
 0 200 l 1
 0 360 l 1
 80 520 l 1
 200 560 l 1
240 520 m 1
 160 480 l 1
 120 280 l 1
 320 320 l 1
 320 480 l 1
 240 520 l 1
EndSplineSet
Validated: 9
EndChar

StartChar: igrave
Encoding: 236 236 84
Width: 320
VWidth: 0
Flags: HW
LayerCount: 2
Fore
SplineSet
200 600 m 1
 160 600 l 1
 0 680 l 1
 0 720 l 1
 40 760 l 1
 80 760 l 1
 200 600 l 1
0 480 m 1
 200 560 l 1
 200 80 l 1
 280 0 l 1
 0 0 l 1
 80 80 l 1
 80 440 l 5
 0 480 l 1
EndSplineSet
Validated: 1
EndChar

StartChar: iacute
Encoding: 237 237 85
Width: 320
VWidth: 0
Flags: HW
LayerCount: 2
Fore
SplineSet
40 600 m 1
 80 600 l 1
 240 680 l 1
 240 720 l 1
 200 760 l 5
 160 760 l 1
 40 600 l 1
0 480 m 1
 200 560 l 1
 200 80 l 1
 280 0 l 1
 0 0 l 1
 80 80 l 1
 80 440 l 1
 0 480 l 1
EndSplineSet
Validated: 9
EndChar

StartChar: icircumflex
Encoding: 238 238 86
Width: 320
VWidth: 0
Flags: HW
LayerCount: 2
Fore
SplineSet
-40 600 m 5
 0 600 l 1
 120 680 l 1
 240 600 l 1
 280 600 l 1
 160 760 l 1
 80 760 l 1
 -40 600 l 5
0 480 m 1
 200 560 l 1
 200 80 l 1
 280 0 l 1
 0 0 l 1
 80 80 l 1
 80 440 l 1
 0 480 l 1
EndSplineSet
Validated: 9
EndChar

StartChar: idieresis
Encoding: 239 239 87
Width: 320
VWidth: 0
Flags: HW
LayerCount: 2
Fore
SplineSet
240 720 m 1
 280 680 l 1
 280 640 l 1
 240 600 l 1
 160 600 l 5
 160 680 l 1
 200 720 l 1
 240 720 l 1
40 720 m 1
 80 680 l 1
 80 600 l 1
 0 600 l 1
 -40 640 l 1
 -40 680 l 1
 0 720 l 1
 40 720 l 1
0 480 m 1
 200 560 l 1
 200 80 l 1
 280 0 l 1
 0 0 l 1
 80 80 l 1
 80 440 l 1
 0 480 l 1
EndSplineSet
Validated: 1
EndChar

StartChar: ae
Encoding: 230 230 88
Width: 800
VWidth: 0
Flags: HW
LayerCount: 2
Fore
SplineSet
120 560 m 1
 240 560 l 5
 360 520 l 1
 480 560 l 1
 560 560 l 1
 680 520 l 1
 760 360 l 1
 720 280 l 1
 400 240 l 1
 440 80 l 1
 560 40 l 1
 640 80 l 1
 680 160 l 1
 760 120 l 1
 680 40 l 1
 600 0 l 1
 480 0 l 1
 360 40 l 1
 320 80 l 1
 280 40 l 1
 120 0 l 1
 80 0 l 1
 0 160 l 1
 0 280 l 1
 280 360 l 1
 280 440 l 1
 240 520 l 1
 120 480 l 1
 80 400 l 1
 0 480 l 1
 120 560 l 1
520 520 m 1
 440 480 l 1
 400 280 l 1
 600 320 l 1
 600 480 l 1
 520 520 l 1
280 320 m 1
 120 240 l 1
 120 160 l 1
 160 80 l 1
 200 80 l 1
 280 160 l 1
 280 200 l 1
 280 320 l 1
EndSplineSet
Validated: 1
EndChar

StartChar: ccedilla
Encoding: 231 231 89
Width: 520
VWidth: 0
Flags: HW
LayerCount: 2
Fore
SplineSet
280 -40 m 1
 320 -80 l 1
 280 -160 l 1
 200 -200 l 1
 160 -160 l 1
 160 -120 l 1
 200 -160 l 1
 240 -120 l 1
 240 -80 l 1
 160 -80 l 1
 200 0 l 1
 80 40 l 1
 0 200 l 1
 0 360 l 1
 80 520 l 1
 200 560 l 1
 280 560 l 1
 400 520 l 1
 440 440 l 1
 360 360 l 1
 320 360 l 1
 320 480 l 1
 240 520 l 1
 160 480 l 1
 120 320 l 1
 120 240 l 1
 160 80 l 1
 280 40 l 1
 360 80 l 1
 400 160 l 1
 480 120 l 1
 400 40 l 1
 320 0 l 1
 240 0 l 1
 220 -40 l 1
 280 -40 l 1
EndSplineSet
Validated: 1
EndChar

StartChar: agrave
Encoding: 224 224 90
Width: 520
VWidth: 0
Flags: HW
LayerCount: 2
Fore
SplineSet
320 600 m 1
 280 600 l 1
 80 680 l 1
 80 720 l 1
 120 760 l 1
 160 760 l 1
 320 600 l 1
120 560 m 1
 240 560 l 1
 400 480 l 1
 400 80 l 1
 480 80 l 1
 480 40 l 1
 360 0 l 1
 280 80 l 1
 240 40 l 1
 120 0 l 1
 80 0 l 1
 0 160 l 1
 0 280 l 1
 280 360 l 1
 280 440 l 1
 240 520 l 1
 120 480 l 1
 80 400 l 1
 0 480 l 1
 120 560 l 1
280 320 m 1
 120 240 l 1
 120 160 l 1
 160 80 l 1
 200 80 l 1
 280 160 l 1
 280 320 l 1
EndSplineSet
Validated: 1
EndChar

StartChar: aacute
Encoding: 225 225 91
Width: 520
VWidth: 0
Flags: HW
LayerCount: 2
Fore
SplineSet
120 600 m 1
 160 600 l 1
 360 680 l 1
 360 720 l 1
 320 760 l 1
 280 760 l 1
 120 600 l 1
120 560 m 1
 240 560 l 1
 400 480 l 1
 400 80 l 1
 480 80 l 1
 480 40 l 1
 360 0 l 1
 280 80 l 1
 240 40 l 1
 120 0 l 1
 80 0 l 1
 0 160 l 1
 0 280 l 1
 280 360 l 1
 280 440 l 1
 240 520 l 1
 120 480 l 1
 80 400 l 1
 0 480 l 1
 120 560 l 1
280 320 m 1
 120 240 l 1
 120 160 l 1
 160 80 l 1
 200 80 l 1
 280 160 l 1
 280 320 l 1
EndSplineSet
Validated: 9
EndChar

StartChar: acircumflex
Encoding: 226 226 92
Width: 520
VWidth: 0
Flags: HW
LayerCount: 2
Fore
SplineSet
40 600 m 1
 80 600 l 1
 200 680 l 1
 320 600 l 1
 360 600 l 1
 240 760 l 1
 160 760 l 1
 40 600 l 1
120 560 m 1
 240 560 l 1
 400 480 l 1
 400 80 l 1
 480 80 l 1
 480 40 l 1
 360 0 l 1
 280 80 l 1
 240 40 l 1
 120 0 l 1
 80 0 l 1
 0 160 l 1
 0 280 l 1
 280 360 l 1
 280 440 l 1
 240 520 l 1
 120 480 l 1
 80 400 l 1
 0 480 l 1
 120 560 l 1
280 320 m 1
 120 240 l 1
 120 160 l 1
 160 80 l 1
 200 80 l 1
 280 160 l 1
 280 320 l 1
EndSplineSet
Validated: 9
EndChar

StartChar: atilde
Encoding: 227 227 93
Width: 520
VWidth: 0
Flags: HW
LayerCount: 2
Fore
SplineSet
280 640 m 25
 200 680 l 25
 120 680 l 25
 40 640 l 25
 80 600 l 29
 160 640 l 25
 240 600 l 25
 320 600 l 25
 400 640 l 25
 360 680 l 25
 280 640 l 25
120 560 m 1
 240 560 l 1
 400 480 l 1
 400 80 l 1
 480 80 l 1
 480 40 l 1
 360 0 l 1
 280 80 l 1
 240 40 l 1
 120 0 l 1
 80 0 l 1
 0 160 l 1
 0 280 l 1
 280 360 l 1
 280 440 l 1
 240 520 l 1
 120 480 l 1
 80 400 l 1
 0 480 l 1
 120 560 l 1
280 320 m 1
 120 240 l 1
 120 160 l 1
 160 80 l 1
 200 80 l 1
 280 160 l 1
 280 320 l 1
EndSplineSet
Validated: 9
EndChar

StartChar: adieresis
Encoding: 228 228 94
Width: 520
VWidth: 0
Flags: HW
LayerCount: 2
Fore
SplineSet
320 720 m 1
 360 680 l 1
 360 640 l 1
 320 600 l 1
 240 600 l 1
 240 680 l 1
 280 720 l 1
 320 720 l 1
120 720 m 1
 160 680 l 1
 160 600 l 1
 80 600 l 1
 40 640 l 1
 40 680 l 1
 80 720 l 1
 120 720 l 1
120 560 m 1
 240 560 l 1
 400 480 l 1
 400 80 l 1
 480 80 l 1
 480 40 l 1
 360 0 l 1
 280 80 l 1
 240 40 l 1
 120 0 l 1
 80 0 l 1
 0 160 l 1
 0 280 l 1
 280 360 l 1
 280 440 l 1
 240 520 l 1
 120 480 l 1
 80 400 l 1
 0 480 l 1
 120 560 l 1
280 320 m 1
 120 240 l 1
 120 160 l 1
 160 80 l 1
 200 80 l 1
 280 160 l 1
 280 320 l 1
EndSplineSet
Validated: 1
EndChar

StartChar: aring
Encoding: 229 229 95
Width: 520
VWidth: 0
Flags: HW
LayerCount: 2
Fore
SplineSet
120 680 m 25
 200 725 l 25
 280 680 l 25
 200 635 l 25
 120 680 l 25
320 680 m 25
 240 760 l 25
 160 760 l 25
 80 680 l 25
 160 600 l 25
 240 600 l 25
 320 680 l 25
120 560 m 1
 240 560 l 1
 400 480 l 1
 400 80 l 1
 480 80 l 1
 480 40 l 1
 360 0 l 1
 280 80 l 1
 240 40 l 1
 120 0 l 1
 80 0 l 1
 0 160 l 1
 0 280 l 1
 280 360 l 1
 280 440 l 1
 240 520 l 1
 120 480 l 1
 80 400 l 1
 0 480 l 1
 120 560 l 1
280 320 m 1
 120 240 l 1
 120 160 l 1
 160 80 l 1
 200 80 l 1
 280 160 l 1
 280 320 l 1
EndSplineSet
Validated: 9
EndChar

StartChar: slash
Encoding: 47 47 96
Width: 324
VWidth: 0
Flags: HW
LayerCount: 2
Fore
SplineSet
200 760 m 25
 280 760 l 25
 80 -80 l 25
 0 -80 l 29
 200 760 l 25
EndSplineSet
Validated: 1
EndChar

StartChar: ampersand
Encoding: 38 38 97
Width: 760
VWidth: 0
Flags: HWO
LayerCount: 2
Fore
SplineSet
240 400 m 1
 200 360 l 1
 160 320 l 1
 120 200 l 1
 168 80 l 1
 280 40 l 1
 360 80 l 1
 440 160 l 1
 240 400 l 1
280 760 m 1
 200 720 l 1
 160 640 l 1
 200 560 l 1
 280 480 l 1
 360 560 l 1
 400 640 l 1
 360 720 l 1
 280 760 l 1
680 400 m 1
 600 320 l 1
 520 200 l 1
 600 40 l 1
 600 0 l 1
 560 0 l 1
 480 120 l 1
 400 40 l 1
 320 0 l 1
 160 0 l 1
 40 80 l 1
 0 160 l 1
 0 240 l 1
 80 360 l 1
 200 440 l 1
 120 520 l 5
 80 600 l 1
 80 680 l 1
 160 760 l 1
 240 800 l 1
 320 800 l 1
 440 760 l 1
 480 680 l 1
 480 600 l 1
 440 520 l 1
 330 440 l 1
 480 240 l 1
 520 320 l 1
 480 400 l 1
 680 400 l 1
EndSplineSet
EndChar
